<mxfile host="app.diagrams.net" modified="2024-04-16T01:33:33.435Z" agent="Mozilla/5.0 (Windows NT 10.0; Win64; x64) AppleWebKit/537.36 (KHTML, like Gecko) Chrome/123.0.0.0 Safari/537.36" etag="5jTsd3s3uznT8ruwWf2q" version="24.2.5" type="device">
  <diagram id="_wogAJUdVSEfxbqdeqLf" name="Page-2">
    <mxGraphModel dx="1900" dy="522" grid="1" gridSize="10" guides="1" tooltips="1" connect="1" arrows="1" fold="1" page="1" pageScale="1" pageWidth="850" pageHeight="1100" math="0" shadow="0">
      <root>
        <mxCell id="0" />
        <mxCell id="1" parent="0" />
        <mxCell id="95oVGYyRM19d0E_emJBf-1" value="&amp;lt;&amp;lt;dataclass&amp;gt;&amp;gt;&lt;br&gt;Reminder" style="swimlane;fontStyle=1;align=center;verticalAlign=top;childLayout=stackLayout;horizontal=1;startSize=40;horizontalStack=0;resizeParent=1;resizeParentMax=0;resizeLast=0;collapsible=1;marginBottom=0;whiteSpace=wrap;html=1;hachureGap=4;fontFamily=Helvetica;labelBackgroundColor=none;rounded=0;sketch=1;curveFitting=1;jiggle=2;" parent="1" vertex="1">
          <mxGeometry x="530" y="470" width="230" height="204" as="geometry" />
        </mxCell>
        <mxCell id="95oVGYyRM19d0E_emJBf-2" value="+ EMAIL: str = &#39;email&#39;" style="text;strokeColor=none;fillColor=none;align=left;verticalAlign=top;spacingLeft=4;spacingRight=4;overflow=hidden;rotatable=0;points=[[0,0.5],[1,0.5]];portConstraint=eastwest;whiteSpace=wrap;html=1;fontFamily=Helvetica;labelBackgroundColor=none;rounded=0;fontStyle=4;sketch=1;curveFitting=1;jiggle=2;" parent="95oVGYyRM19d0E_emJBf-1" vertex="1">
          <mxGeometry y="40" width="230" height="26" as="geometry" />
        </mxCell>
        <mxCell id="95oVGYyRM19d0E_emJBf-7" value="+ SYSTEM: str = &#39;system&#39;" style="text;strokeColor=none;fillColor=none;align=left;verticalAlign=top;spacingLeft=4;spacingRight=4;overflow=hidden;rotatable=0;points=[[0,0.5],[1,0.5]];portConstraint=eastwest;whiteSpace=wrap;html=1;fontFamily=Helvetica;labelBackgroundColor=none;rounded=0;fontStyle=4;sketch=1;curveFitting=1;jiggle=2;" parent="95oVGYyRM19d0E_emJBf-1" vertex="1">
          <mxGeometry y="66" width="230" height="26" as="geometry" />
        </mxCell>
        <mxCell id="95oVGYyRM19d0E_emJBf-6" value="+ date_time: datetime" style="text;strokeColor=none;fillColor=none;align=left;verticalAlign=top;spacingLeft=4;spacingRight=4;overflow=hidden;rotatable=0;points=[[0,0.5],[1,0.5]];portConstraint=eastwest;whiteSpace=wrap;html=1;fontFamily=Helvetica;labelBackgroundColor=none;rounded=0;sketch=1;curveFitting=1;jiggle=2;" parent="95oVGYyRM19d0E_emJBf-1" vertex="1">
          <mxGeometry y="92" width="230" height="26" as="geometry" />
        </mxCell>
        <mxCell id="95oVGYyRM19d0E_emJBf-5" value="+ type: str = EMAIL" style="text;strokeColor=none;fillColor=none;align=left;verticalAlign=top;spacingLeft=4;spacingRight=4;overflow=hidden;rotatable=0;points=[[0,0.5],[1,0.5]];portConstraint=eastwest;whiteSpace=wrap;html=1;fontFamily=Helvetica;labelBackgroundColor=none;rounded=0;sketch=1;curveFitting=1;jiggle=2;" parent="95oVGYyRM19d0E_emJBf-1" vertex="1">
          <mxGeometry y="118" width="230" height="26" as="geometry" />
        </mxCell>
        <mxCell id="95oVGYyRM19d0E_emJBf-3" value="" style="line;strokeWidth=1;fillColor=none;align=left;verticalAlign=middle;spacingTop=-1;spacingLeft=3;spacingRight=3;rotatable=0;labelPosition=right;points=[];portConstraint=eastwest;hachureGap=4;fontFamily=Helvetica;labelBackgroundColor=none;rounded=0;sketch=1;curveFitting=1;jiggle=2;" parent="95oVGYyRM19d0E_emJBf-1" vertex="1">
          <mxGeometry y="144" width="230" height="8" as="geometry" />
        </mxCell>
        <mxCell id="95oVGYyRM19d0E_emJBf-4" value="+ __init__(date_time, type = EMAIL)" style="text;strokeColor=none;fillColor=none;align=left;verticalAlign=top;spacingLeft=4;spacingRight=4;overflow=hidden;rotatable=0;points=[[0,0.5],[1,0.5]];portConstraint=eastwest;whiteSpace=wrap;html=1;fontFamily=Helvetica;labelBackgroundColor=none;rounded=0;sketch=1;curveFitting=1;jiggle=2;" parent="95oVGYyRM19d0E_emJBf-1" vertex="1">
          <mxGeometry y="152" width="230" height="26" as="geometry" />
        </mxCell>
        <mxCell id="2Sr8vMXwaTmX5nrPw6TR-1" value="+ __str__() -&amp;gt; str" style="text;strokeColor=none;fillColor=none;align=left;verticalAlign=top;spacingLeft=4;spacingRight=4;overflow=hidden;rotatable=0;points=[[0,0.5],[1,0.5]];portConstraint=eastwest;whiteSpace=wrap;html=1;fontFamily=Helvetica;labelBackgroundColor=none;rounded=0;sketch=1;curveFitting=1;jiggle=2;" parent="95oVGYyRM19d0E_emJBf-1" vertex="1">
          <mxGeometry y="178" width="230" height="26" as="geometry" />
        </mxCell>
        <mxCell id="RY-ba9Q4a1soDU3ntm-o-17" style="edgeStyle=orthogonalEdgeStyle;rounded=0;sketch=1;hachureGap=4;jiggle=2;curveFitting=1;orthogonalLoop=1;jettySize=auto;html=1;fontFamily=Architects Daughter;fontSource=https%3A%2F%2Ffonts.googleapis.com%2Fcss%3Ffamily%3DArchitects%2BDaughter;endArrow=open;endFill=0;" parent="1" source="95oVGYyRM19d0E_emJBf-8" target="95oVGYyRM19d0E_emJBf-1" edge="1">
          <mxGeometry relative="1" as="geometry">
            <Array as="points">
              <mxPoint x="650" y="470" />
              <mxPoint x="655" y="470" />
            </Array>
          </mxGeometry>
        </mxCell>
        <mxCell id="RY-ba9Q4a1soDU3ntm-o-22" value="reminders: list[Reminder]" style="edgeLabel;html=1;align=center;verticalAlign=middle;resizable=0;points=[];sketch=1;hachureGap=4;jiggle=2;curveFitting=1;fontFamily=Verdana;" parent="RY-ba9Q4a1soDU3ntm-o-17" vertex="1" connectable="0">
          <mxGeometry x="0.28" y="-2" relative="1" as="geometry">
            <mxPoint x="-83" y="34" as="offset" />
          </mxGeometry>
        </mxCell>
        <mxCell id="RY-ba9Q4a1soDU3ntm-o-23" value="0..*" style="edgeLabel;html=1;align=center;verticalAlign=middle;resizable=0;points=[];sketch=1;hachureGap=4;jiggle=2;curveFitting=1;fontFamily=Verdana;" parent="RY-ba9Q4a1soDU3ntm-o-17" vertex="1" connectable="0">
          <mxGeometry x="0.3967" y="-3" relative="1" as="geometry">
            <mxPoint x="28" y="21" as="offset" />
          </mxGeometry>
        </mxCell>
        <mxCell id="95oVGYyRM19d0E_emJBf-8" value="&amp;lt;&amp;lt;dataclass&amp;gt;&amp;gt;&lt;br&gt;Event" style="swimlane;fontStyle=1;align=center;verticalAlign=top;childLayout=stackLayout;horizontal=1;startSize=47;horizontalStack=0;resizeParent=1;resizeParentMax=0;resizeLast=0;collapsible=1;marginBottom=0;whiteSpace=wrap;html=1;hachureGap=4;fontFamily=Helvetica;labelBackgroundColor=none;rounded=0;sketch=1;curveFitting=1;jiggle=2;" parent="1" vertex="1">
          <mxGeometry x="530" y="7.5" width="290" height="315" as="geometry" />
        </mxCell>
        <mxCell id="RY-ba9Q4a1soDU3ntm-o-25" value="+ id: str" style="text;strokeColor=none;fillColor=none;align=left;verticalAlign=top;spacingLeft=4;spacingRight=4;overflow=hidden;rotatable=0;points=[[0,0.5],[1,0.5]];portConstraint=eastwest;whiteSpace=wrap;html=1;fontFamily=Helvetica;labelBackgroundColor=none;rounded=0;fontStyle=0;sketch=1;curveFitting=1;jiggle=2;" parent="95oVGYyRM19d0E_emJBf-8" vertex="1">
          <mxGeometry y="47" width="290" height="26" as="geometry" />
        </mxCell>
        <mxCell id="95oVGYyRM19d0E_emJBf-9" value="+ title: str" style="text;strokeColor=none;fillColor=none;align=left;verticalAlign=top;spacingLeft=4;spacingRight=4;overflow=hidden;rotatable=0;points=[[0,0.5],[1,0.5]];portConstraint=eastwest;whiteSpace=wrap;html=1;fontFamily=Helvetica;labelBackgroundColor=none;rounded=0;fontStyle=0;sketch=1;curveFitting=1;jiggle=2;" parent="95oVGYyRM19d0E_emJBf-8" vertex="1">
          <mxGeometry y="73" width="290" height="26" as="geometry" />
        </mxCell>
        <mxCell id="95oVGYyRM19d0E_emJBf-10" value="+ description: str" style="text;strokeColor=none;fillColor=none;align=left;verticalAlign=top;spacingLeft=4;spacingRight=4;overflow=hidden;rotatable=0;points=[[0,0.5],[1,0.5]];portConstraint=eastwest;whiteSpace=wrap;html=1;fontFamily=Helvetica;labelBackgroundColor=none;rounded=0;fontStyle=0;sketch=1;curveFitting=1;jiggle=2;" parent="95oVGYyRM19d0E_emJBf-8" vertex="1">
          <mxGeometry y="99" width="290" height="26" as="geometry" />
        </mxCell>
        <mxCell id="95oVGYyRM19d0E_emJBf-11" value="+ date_: date" style="text;strokeColor=none;fillColor=none;align=left;verticalAlign=top;spacingLeft=4;spacingRight=4;overflow=hidden;rotatable=0;points=[[0,0.5],[1,0.5]];portConstraint=eastwest;whiteSpace=wrap;html=1;fontFamily=Helvetica;labelBackgroundColor=none;rounded=0;sketch=1;curveFitting=1;jiggle=2;" parent="95oVGYyRM19d0E_emJBf-8" vertex="1">
          <mxGeometry y="125" width="290" height="26" as="geometry" />
        </mxCell>
        <mxCell id="95oVGYyRM19d0E_emJBf-12" value="+ start_at: time" style="text;strokeColor=none;fillColor=none;align=left;verticalAlign=top;spacingLeft=4;spacingRight=4;overflow=hidden;rotatable=0;points=[[0,0.5],[1,0.5]];portConstraint=eastwest;whiteSpace=wrap;html=1;fontFamily=Helvetica;labelBackgroundColor=none;rounded=0;sketch=1;curveFitting=1;jiggle=2;" parent="95oVGYyRM19d0E_emJBf-8" vertex="1">
          <mxGeometry y="151" width="290" height="26" as="geometry" />
        </mxCell>
        <mxCell id="95oVGYyRM19d0E_emJBf-15" value="+ end_at: time" style="text;strokeColor=none;fillColor=none;align=left;verticalAlign=top;spacingLeft=4;spacingRight=4;overflow=hidden;rotatable=0;points=[[0,0.5],[1,0.5]];portConstraint=eastwest;whiteSpace=wrap;html=1;fontFamily=Helvetica;labelBackgroundColor=none;rounded=0;sketch=1;curveFitting=1;jiggle=2;" parent="95oVGYyRM19d0E_emJBf-8" vertex="1">
          <mxGeometry y="177" width="290" height="26" as="geometry" />
        </mxCell>
        <mxCell id="95oVGYyRM19d0E_emJBf-13" value="" style="line;strokeWidth=1;fillColor=none;align=left;verticalAlign=middle;spacingTop=-1;spacingLeft=3;spacingRight=3;rotatable=0;labelPosition=right;points=[];portConstraint=eastwest;hachureGap=4;fontFamily=Helvetica;labelBackgroundColor=none;rounded=0;sketch=1;curveFitting=1;jiggle=2;" parent="95oVGYyRM19d0E_emJBf-8" vertex="1">
          <mxGeometry y="203" width="290" height="8" as="geometry" />
        </mxCell>
        <mxCell id="95oVGYyRM19d0E_emJBf-14" value="+ __init__(title, description, date_, start_at, end_at)" style="text;strokeColor=none;fillColor=none;align=left;verticalAlign=top;spacingLeft=4;spacingRight=4;overflow=hidden;rotatable=0;points=[[0,0.5],[1,0.5]];portConstraint=eastwest;whiteSpace=wrap;html=1;fontFamily=Helvetica;labelBackgroundColor=none;rounded=0;sketch=1;curveFitting=1;jiggle=2;" parent="95oVGYyRM19d0E_emJBf-8" vertex="1">
          <mxGeometry y="211" width="290" height="26" as="geometry" />
        </mxCell>
        <mxCell id="RY-ba9Q4a1soDU3ntm-o-44" value="+ add_reminder(date_time: datetime, type_: str)" style="text;strokeColor=none;fillColor=none;align=left;verticalAlign=top;spacingLeft=4;spacingRight=4;overflow=hidden;rotatable=0;points=[[0,0.5],[1,0.5]];portConstraint=eastwest;whiteSpace=wrap;html=1;fontFamily=Helvetica;labelBackgroundColor=none;rounded=0;sketch=1;curveFitting=1;jiggle=2;" parent="95oVGYyRM19d0E_emJBf-8" vertex="1">
          <mxGeometry y="237" width="290" height="26" as="geometry" />
        </mxCell>
        <mxCell id="RY-ba9Q4a1soDU3ntm-o-45" value="+ delete_reminder(reminder_index: int)" style="text;strokeColor=none;fillColor=none;align=left;verticalAlign=top;spacingLeft=4;spacingRight=4;overflow=hidden;rotatable=0;points=[[0,0.5],[1,0.5]];portConstraint=eastwest;whiteSpace=wrap;html=1;fontFamily=Helvetica;labelBackgroundColor=none;rounded=0;sketch=1;curveFitting=1;jiggle=2;" parent="95oVGYyRM19d0E_emJBf-8" vertex="1">
          <mxGeometry y="263" width="290" height="26" as="geometry" />
        </mxCell>
        <mxCell id="2Sr8vMXwaTmX5nrPw6TR-2" value="+ __str__() -&amp;gt; str" style="text;strokeColor=none;fillColor=none;align=left;verticalAlign=top;spacingLeft=4;spacingRight=4;overflow=hidden;rotatable=0;points=[[0,0.5],[1,0.5]];portConstraint=eastwest;whiteSpace=wrap;html=1;fontFamily=Helvetica;labelBackgroundColor=none;rounded=0;sketch=1;curveFitting=1;jiggle=2;" parent="95oVGYyRM19d0E_emJBf-8" vertex="1">
          <mxGeometry y="289" width="290" height="26" as="geometry" />
        </mxCell>
        <mxCell id="RY-ba9Q4a1soDU3ntm-o-1" value="Day" style="swimlane;fontStyle=1;align=center;verticalAlign=top;childLayout=stackLayout;horizontal=1;startSize=26;horizontalStack=0;resizeParent=1;resizeParentMax=0;resizeLast=0;collapsible=1;marginBottom=0;whiteSpace=wrap;html=1;hachureGap=4;fontFamily=Helvetica;labelBackgroundColor=none;rounded=0;sketch=1;curveFitting=1;jiggle=2;" parent="1" vertex="1">
          <mxGeometry x="-60" y="412" width="320" height="216" as="geometry" />
        </mxCell>
        <mxCell id="RY-ba9Q4a1soDU3ntm-o-4" value="+ date_: date" style="text;strokeColor=none;fillColor=none;align=left;verticalAlign=top;spacingLeft=4;spacingRight=4;overflow=hidden;rotatable=0;points=[[0,0.5],[1,0.5]];portConstraint=eastwest;whiteSpace=wrap;html=1;fontFamily=Helvetica;labelBackgroundColor=none;rounded=0;sketch=1;curveFitting=1;jiggle=2;" parent="RY-ba9Q4a1soDU3ntm-o-1" vertex="1">
          <mxGeometry y="26" width="320" height="26" as="geometry" />
        </mxCell>
        <mxCell id="2Sr8vMXwaTmX5nrPw6TR-5" value="+ slots: dict[time, str]" style="text;strokeColor=none;fillColor=none;align=left;verticalAlign=top;spacingLeft=4;spacingRight=4;overflow=hidden;rotatable=0;points=[[0,0.5],[1,0.5]];portConstraint=eastwest;whiteSpace=wrap;html=1;fontFamily=Helvetica;labelBackgroundColor=none;rounded=0;sketch=1;curveFitting=1;jiggle=2;" parent="RY-ba9Q4a1soDU3ntm-o-1" vertex="1">
          <mxGeometry y="52" width="320" height="26" as="geometry" />
        </mxCell>
        <mxCell id="RY-ba9Q4a1soDU3ntm-o-6" value="" style="line;strokeWidth=1;fillColor=none;align=left;verticalAlign=middle;spacingTop=-1;spacingLeft=3;spacingRight=3;rotatable=0;labelPosition=right;points=[];portConstraint=eastwest;hachureGap=4;fontFamily=Helvetica;labelBackgroundColor=none;rounded=0;sketch=1;curveFitting=1;jiggle=2;" parent="RY-ba9Q4a1soDU3ntm-o-1" vertex="1">
          <mxGeometry y="78" width="320" height="8" as="geometry" />
        </mxCell>
        <mxCell id="RY-ba9Q4a1soDU3ntm-o-7" value="+ __init__(date_: date)" style="text;strokeColor=none;fillColor=none;align=left;verticalAlign=top;spacingLeft=4;spacingRight=4;overflow=hidden;rotatable=0;points=[[0,0.5],[1,0.5]];portConstraint=eastwest;whiteSpace=wrap;html=1;fontFamily=Helvetica;labelBackgroundColor=none;rounded=0;sketch=1;curveFitting=1;jiggle=2;" parent="RY-ba9Q4a1soDU3ntm-o-1" vertex="1">
          <mxGeometry y="86" width="320" height="26" as="geometry" />
        </mxCell>
        <mxCell id="RY-ba9Q4a1soDU3ntm-o-8" value="# _init_slots()" style="text;strokeColor=none;fillColor=none;align=left;verticalAlign=top;spacingLeft=4;spacingRight=4;overflow=hidden;rotatable=0;points=[[0,0.5],[1,0.5]];portConstraint=eastwest;whiteSpace=wrap;html=1;fontFamily=Helvetica;labelBackgroundColor=none;rounded=0;sketch=1;curveFitting=1;jiggle=2;" parent="RY-ba9Q4a1soDU3ntm-o-1" vertex="1">
          <mxGeometry y="112" width="320" height="26" as="geometry" />
        </mxCell>
        <mxCell id="RY-ba9Q4a1soDU3ntm-o-42" value="+ add_event(event_id: str, start_at: time, end_at: time)" style="text;strokeColor=none;fillColor=none;align=left;verticalAlign=top;spacingLeft=4;spacingRight=4;overflow=hidden;rotatable=0;points=[[0,0.5],[1,0.5]];portConstraint=eastwest;whiteSpace=wrap;html=1;fontFamily=Helvetica;labelBackgroundColor=none;rounded=0;sketch=1;curveFitting=1;jiggle=2;" parent="RY-ba9Q4a1soDU3ntm-o-1" vertex="1">
          <mxGeometry y="138" width="320" height="26" as="geometry" />
        </mxCell>
        <mxCell id="RY-ba9Q4a1soDU3ntm-o-47" value="+ delete_event(event_id: str)" style="text;strokeColor=none;fillColor=none;align=left;verticalAlign=top;spacingLeft=4;spacingRight=4;overflow=hidden;rotatable=0;points=[[0,0.5],[1,0.5]];portConstraint=eastwest;whiteSpace=wrap;html=1;fontFamily=Helvetica;labelBackgroundColor=none;rounded=0;sketch=1;curveFitting=1;jiggle=2;" parent="RY-ba9Q4a1soDU3ntm-o-1" vertex="1">
          <mxGeometry y="164" width="320" height="26" as="geometry" />
        </mxCell>
        <mxCell id="RY-ba9Q4a1soDU3ntm-o-48" value="+ update_event(event_id: str, start_at: time, end_at: time)" style="text;strokeColor=none;fillColor=none;align=left;verticalAlign=top;spacingLeft=4;spacingRight=4;overflow=hidden;rotatable=0;points=[[0,0.5],[1,0.5]];portConstraint=eastwest;whiteSpace=wrap;html=1;fontFamily=Helvetica;labelBackgroundColor=none;rounded=0;sketch=1;curveFitting=1;jiggle=2;" parent="RY-ba9Q4a1soDU3ntm-o-1" vertex="1">
          <mxGeometry y="190" width="320" height="26" as="geometry" />
        </mxCell>
        <mxCell id="RY-ba9Q4a1soDU3ntm-o-15" style="edgeStyle=orthogonalEdgeStyle;rounded=0;sketch=1;hachureGap=4;jiggle=2;curveFitting=1;orthogonalLoop=1;jettySize=auto;html=1;fontFamily=Architects Daughter;fontSource=https%3A%2F%2Ffonts.googleapis.com%2Fcss%3Ffamily%3DArchitects%2BDaughter;endArrow=open;endFill=0;" parent="1" source="RY-ba9Q4a1soDU3ntm-o-9" target="RY-ba9Q4a1soDU3ntm-o-1" edge="1">
          <mxGeometry relative="1" as="geometry">
            <Array as="points">
              <mxPoint x="130" y="210" />
              <mxPoint x="130" y="210" />
            </Array>
          </mxGeometry>
        </mxCell>
        <mxCell id="RY-ba9Q4a1soDU3ntm-o-18" value="days: dict[date, Day]" style="edgeLabel;html=1;align=center;verticalAlign=middle;resizable=0;points=[];sketch=1;hachureGap=4;jiggle=2;curveFitting=1;fontFamily=Verdana;" parent="RY-ba9Q4a1soDU3ntm-o-15" vertex="1" connectable="0">
          <mxGeometry x="0.5971" y="-1" relative="1" as="geometry">
            <mxPoint x="66" as="offset" />
          </mxGeometry>
        </mxCell>
        <mxCell id="RY-ba9Q4a1soDU3ntm-o-19" value="*" style="edgeLabel;html=1;align=center;verticalAlign=middle;resizable=0;points=[];sketch=1;hachureGap=4;jiggle=2;curveFitting=1;fontFamily=Verdana;" parent="RY-ba9Q4a1soDU3ntm-o-15" vertex="1" connectable="0">
          <mxGeometry x="0.5971" y="-4" relative="1" as="geometry">
            <mxPoint x="-11" y="2" as="offset" />
          </mxGeometry>
        </mxCell>
        <mxCell id="RY-ba9Q4a1soDU3ntm-o-9" value="Calendar" style="swimlane;fontStyle=1;align=center;verticalAlign=top;childLayout=stackLayout;horizontal=1;startSize=26;horizontalStack=0;resizeParent=1;resizeParentMax=0;resizeLast=0;collapsible=1;marginBottom=0;whiteSpace=wrap;html=1;hachureGap=4;fontFamily=Helvetica;labelBackgroundColor=none;rounded=0;sketch=1;curveFitting=1;jiggle=2;" parent="1" vertex="1">
          <mxGeometry x="-100" y="18" width="410" height="294" as="geometry" />
        </mxCell>
        <mxCell id="RY-ba9Q4a1soDU3ntm-o-52" value="+ days: dict[date, Day]" style="text;strokeColor=none;fillColor=none;align=left;verticalAlign=top;spacingLeft=4;spacingRight=4;overflow=hidden;rotatable=0;points=[[0,0.5],[1,0.5]];portConstraint=eastwest;whiteSpace=wrap;html=1;fontFamily=Helvetica;labelBackgroundColor=none;rounded=0;sketch=1;curveFitting=1;jiggle=2;" parent="RY-ba9Q4a1soDU3ntm-o-9" vertex="1">
          <mxGeometry y="26" width="410" height="26" as="geometry" />
        </mxCell>
        <mxCell id="RY-ba9Q4a1soDU3ntm-o-12" value="" style="line;strokeWidth=1;fillColor=none;align=left;verticalAlign=middle;spacingTop=-1;spacingLeft=3;spacingRight=3;rotatable=0;labelPosition=right;points=[];portConstraint=eastwest;hachureGap=4;fontFamily=Helvetica;labelBackgroundColor=none;rounded=0;sketch=1;curveFitting=1;jiggle=2;" parent="RY-ba9Q4a1soDU3ntm-o-9" vertex="1">
          <mxGeometry y="52" width="410" height="8" as="geometry" />
        </mxCell>
        <mxCell id="RY-ba9Q4a1soDU3ntm-o-13" value="+ __init__()" style="text;strokeColor=none;fillColor=none;align=left;verticalAlign=top;spacingLeft=4;spacingRight=4;overflow=hidden;rotatable=0;points=[[0,0.5],[1,0.5]];portConstraint=eastwest;whiteSpace=wrap;html=1;fontFamily=Helvetica;labelBackgroundColor=none;rounded=0;sketch=1;curveFitting=1;jiggle=2;" parent="RY-ba9Q4a1soDU3ntm-o-9" vertex="1">
          <mxGeometry y="60" width="410" height="26" as="geometry" />
        </mxCell>
        <mxCell id="RY-ba9Q4a1soDU3ntm-o-14" value="+ add_event(title, description, date_, start_at, end_at) -&amp;gt; str" style="text;strokeColor=none;fillColor=none;align=left;verticalAlign=top;spacingLeft=4;spacingRight=4;overflow=hidden;rotatable=0;points=[[0,0.5],[1,0.5]];portConstraint=eastwest;whiteSpace=wrap;html=1;fontFamily=Helvetica;labelBackgroundColor=none;rounded=0;sketch=1;curveFitting=1;jiggle=2;" parent="RY-ba9Q4a1soDU3ntm-o-9" vertex="1">
          <mxGeometry y="86" width="410" height="26" as="geometry" />
        </mxCell>
        <mxCell id="RY-ba9Q4a1soDU3ntm-o-24" value="+ update_event(event_id, title, description, date_, start_at, end_at)" style="text;strokeColor=none;fillColor=none;align=left;verticalAlign=top;spacingLeft=4;spacingRight=4;overflow=hidden;rotatable=0;points=[[0,0.5],[1,0.5]];portConstraint=eastwest;whiteSpace=wrap;html=1;fontFamily=Helvetica;labelBackgroundColor=none;rounded=0;sketch=1;curveFitting=1;jiggle=2;" parent="RY-ba9Q4a1soDU3ntm-o-9" vertex="1">
          <mxGeometry y="112" width="410" height="26" as="geometry" />
        </mxCell>
        <mxCell id="RY-ba9Q4a1soDU3ntm-o-26" value="+ delete_event(event_id)" style="text;strokeColor=none;fillColor=none;align=left;verticalAlign=top;spacingLeft=4;spacingRight=4;overflow=hidden;rotatable=0;points=[[0,0.5],[1,0.5]];portConstraint=eastwest;whiteSpace=wrap;html=1;fontFamily=Helvetica;labelBackgroundColor=none;rounded=0;sketch=1;curveFitting=1;jiggle=2;" parent="RY-ba9Q4a1soDU3ntm-o-9" vertex="1">
          <mxGeometry y="138" width="410" height="26" as="geometry" />
        </mxCell>
        <mxCell id="RY-ba9Q4a1soDU3ntm-o-43" value="+ find_events(start_at: date, end_at: date) -&amp;gt; dict[date, list[Event]]" style="text;strokeColor=none;fillColor=none;align=left;verticalAlign=top;spacingLeft=4;spacingRight=4;overflow=hidden;rotatable=0;points=[[0,0.5],[1,0.5]];portConstraint=eastwest;whiteSpace=wrap;html=1;fontFamily=Helvetica;labelBackgroundColor=none;rounded=0;sketch=1;curveFitting=1;jiggle=2;" parent="RY-ba9Q4a1soDU3ntm-o-9" vertex="1">
          <mxGeometry y="164" width="410" height="26" as="geometry" />
        </mxCell>
        <mxCell id="RY-ba9Q4a1soDU3ntm-o-49" value="+ add_reminder(event_id: str, date_time: datetime, type_: str)" style="text;strokeColor=none;fillColor=none;align=left;verticalAlign=top;spacingLeft=4;spacingRight=4;overflow=hidden;rotatable=0;points=[[0,0.5],[1,0.5]];portConstraint=eastwest;whiteSpace=wrap;html=1;fontFamily=Helvetica;labelBackgroundColor=none;rounded=0;sketch=1;curveFitting=1;jiggle=2;" parent="RY-ba9Q4a1soDU3ntm-o-9" vertex="1">
          <mxGeometry y="190" width="410" height="26" as="geometry" />
        </mxCell>
        <mxCell id="RY-ba9Q4a1soDU3ntm-o-50" value="+ delete_reminder(event_id: str, reminder_index: int)" style="text;strokeColor=none;fillColor=none;align=left;verticalAlign=top;spacingLeft=4;spacingRight=4;overflow=hidden;rotatable=0;points=[[0,0.5],[1,0.5]];portConstraint=eastwest;whiteSpace=wrap;html=1;fontFamily=Helvetica;labelBackgroundColor=none;rounded=0;sketch=1;curveFitting=1;jiggle=2;" parent="RY-ba9Q4a1soDU3ntm-o-9" vertex="1">
          <mxGeometry y="216" width="410" height="26" as="geometry" />
        </mxCell>
        <mxCell id="2Sr8vMXwaTmX5nrPw6TR-3" value="+ list_reminders(event_id: str) -&amp;gt; list[Reminder]" style="text;strokeColor=none;fillColor=none;align=left;verticalAlign=top;spacingLeft=4;spacingRight=4;overflow=hidden;rotatable=0;points=[[0,0.5],[1,0.5]];portConstraint=eastwest;whiteSpace=wrap;html=1;fontFamily=Helvetica;labelBackgroundColor=none;rounded=0;sketch=1;curveFitting=1;jiggle=2;" parent="RY-ba9Q4a1soDU3ntm-o-9" vertex="1">
          <mxGeometry y="242" width="410" height="26" as="geometry" />
        </mxCell>
        <mxCell id="RY-ba9Q4a1soDU3ntm-o-51" value="+ find_available_slots(date_: date) -&amp;gt; list[time]" style="text;strokeColor=none;fillColor=none;align=left;verticalAlign=top;spacingLeft=4;spacingRight=4;overflow=hidden;rotatable=0;points=[[0,0.5],[1,0.5]];portConstraint=eastwest;whiteSpace=wrap;html=1;fontFamily=Helvetica;labelBackgroundColor=none;rounded=0;sketch=1;curveFitting=1;jiggle=2;" parent="RY-ba9Q4a1soDU3ntm-o-9" vertex="1">
          <mxGeometry y="268" width="410" height="26" as="geometry" />
        </mxCell>
        <mxCell id="RY-ba9Q4a1soDU3ntm-o-53" style="edgeStyle=orthogonalEdgeStyle;rounded=0;sketch=1;hachureGap=4;jiggle=2;curveFitting=1;orthogonalLoop=1;jettySize=auto;html=1;fontFamily=Architects Daughter;fontSource=https%3A%2F%2Ffonts.googleapis.com%2Fcss%3Ffamily%3DArchitects%2BDaughter;dashed=1;dashPattern=8 8;endArrow=open;endFill=0;" parent="1" source="RY-ba9Q4a1soDU3ntm-o-33" target="RY-ba9Q4a1soDU3ntm-o-9" edge="1">
          <mxGeometry relative="1" as="geometry" />
        </mxCell>
        <mxCell id="RY-ba9Q4a1soDU3ntm-o-33" value="PersistenceService" style="swimlane;fontStyle=1;align=center;verticalAlign=top;childLayout=stackLayout;horizontal=1;startSize=26;horizontalStack=0;resizeParent=1;resizeParentMax=0;resizeLast=0;collapsible=1;marginBottom=0;whiteSpace=wrap;html=1;hachureGap=4;fontFamily=Helvetica;labelBackgroundColor=none;rounded=0;sketch=1;curveFitting=1;jiggle=2;" parent="1" vertex="1">
          <mxGeometry x="-490" y="96" width="230" height="138" as="geometry" />
        </mxCell>
        <mxCell id="RY-ba9Q4a1soDU3ntm-o-36" value="+ file_path: str" style="text;strokeColor=none;fillColor=none;align=left;verticalAlign=top;spacingLeft=4;spacingRight=4;overflow=hidden;rotatable=0;points=[[0,0.5],[1,0.5]];portConstraint=eastwest;whiteSpace=wrap;html=1;fontFamily=Helvetica;labelBackgroundColor=none;rounded=0;sketch=1;curveFitting=1;jiggle=2;" parent="RY-ba9Q4a1soDU3ntm-o-33" vertex="1">
          <mxGeometry y="26" width="230" height="26" as="geometry" />
        </mxCell>
        <mxCell id="RY-ba9Q4a1soDU3ntm-o-38" value="" style="line;strokeWidth=1;fillColor=none;align=left;verticalAlign=middle;spacingTop=-1;spacingLeft=3;spacingRight=3;rotatable=0;labelPosition=right;points=[];portConstraint=eastwest;hachureGap=4;fontFamily=Helvetica;labelBackgroundColor=none;rounded=0;sketch=1;curveFitting=1;jiggle=2;" parent="RY-ba9Q4a1soDU3ntm-o-33" vertex="1">
          <mxGeometry y="52" width="230" height="8" as="geometry" />
        </mxCell>
        <mxCell id="RY-ba9Q4a1soDU3ntm-o-39" value="+ __init__(file_path: str)" style="text;strokeColor=none;fillColor=none;align=left;verticalAlign=top;spacingLeft=4;spacingRight=4;overflow=hidden;rotatable=0;points=[[0,0.5],[1,0.5]];portConstraint=eastwest;whiteSpace=wrap;html=1;fontFamily=Helvetica;labelBackgroundColor=none;rounded=0;sketch=1;curveFitting=1;jiggle=2;" parent="RY-ba9Q4a1soDU3ntm-o-33" vertex="1">
          <mxGeometry y="60" width="230" height="26" as="geometry" />
        </mxCell>
        <mxCell id="RY-ba9Q4a1soDU3ntm-o-40" value="+ save(calendar: Calendar)" style="text;strokeColor=none;fillColor=none;align=left;verticalAlign=top;spacingLeft=4;spacingRight=4;overflow=hidden;rotatable=0;points=[[0,0.5],[1,0.5]];portConstraint=eastwest;whiteSpace=wrap;html=1;fontFamily=Helvetica;labelBackgroundColor=none;rounded=0;sketch=1;curveFitting=1;jiggle=2;" parent="RY-ba9Q4a1soDU3ntm-o-33" vertex="1">
          <mxGeometry y="86" width="230" height="26" as="geometry" />
        </mxCell>
        <mxCell id="RY-ba9Q4a1soDU3ntm-o-41" value="+ load() -&amp;gt; Calendar" style="text;strokeColor=none;fillColor=none;align=left;verticalAlign=top;spacingLeft=4;spacingRight=4;overflow=hidden;rotatable=0;points=[[0,0.5],[1,0.5]];portConstraint=eastwest;whiteSpace=wrap;html=1;fontFamily=Helvetica;labelBackgroundColor=none;rounded=0;sketch=1;curveFitting=1;jiggle=2;" parent="RY-ba9Q4a1soDU3ntm-o-33" vertex="1">
          <mxGeometry y="112" width="230" height="26" as="geometry" />
        </mxCell>
        <mxCell id="2Sr8vMXwaTmX5nrPw6TR-6" style="edgeStyle=orthogonalEdgeStyle;rounded=0;sketch=1;hachureGap=4;jiggle=2;curveFitting=1;orthogonalLoop=1;jettySize=auto;html=1;fontFamily=Architects Daughter;fontSource=https%3A%2F%2Ffonts.googleapis.com%2Fcss%3Ffamily%3DArchitects%2BDaughter;endArrow=open;endFill=0;" parent="1" source="RY-ba9Q4a1soDU3ntm-o-9" target="95oVGYyRM19d0E_emJBf-8" edge="1">
          <mxGeometry relative="1" as="geometry">
            <Array as="points" />
            <mxPoint x="425" y="262" as="sourcePoint" />
            <mxPoint x="425" y="362" as="targetPoint" />
          </mxGeometry>
        </mxCell>
        <mxCell id="2Sr8vMXwaTmX5nrPw6TR-7" value="events: dict[str, Event]" style="edgeLabel;html=1;align=center;verticalAlign=middle;resizable=0;points=[];sketch=1;hachureGap=4;jiggle=2;curveFitting=1;fontFamily=Verdana;" parent="2Sr8vMXwaTmX5nrPw6TR-6" vertex="1" connectable="0">
          <mxGeometry x="0.5971" y="-1" relative="1" as="geometry">
            <mxPoint x="-26" y="-16" as="offset" />
          </mxGeometry>
        </mxCell>
        <mxCell id="2Sr8vMXwaTmX5nrPw6TR-8" value="*" style="edgeLabel;html=1;align=center;verticalAlign=middle;resizable=0;points=[];sketch=1;hachureGap=4;jiggle=2;curveFitting=1;fontFamily=Verdana;" parent="2Sr8vMXwaTmX5nrPw6TR-6" vertex="1" connectable="0">
          <mxGeometry x="0.5971" y="-4" relative="1" as="geometry">
            <mxPoint x="14" y="21" as="offset" />
          </mxGeometry>
        </mxCell>
      </root>
    </mxGraphModel>
  </diagram>
</mxfile>
